<?xml version="1.0" encoding="UTF-8"?>
<svg width="1200pt" height="1200pt" version="1.1" viewBox="0 0 1200 1200" xmlns="http://www.w3.org/2000/svg">
 <g fill="#af9a4f">
  <path d="m900 100h-600c-53.023 0.058594-103.86 21.148-141.36 58.645-37.496 37.496-58.586 88.332-58.645 141.36v600c0.058594 53.023 21.148 103.86 58.645 141.36 37.496 37.496 88.332 58.586 141.36 58.645h600c53.027-0.054688 103.86-21.145 141.36-58.641s58.586-88.332 58.641-141.36v-600c-0.054688-53.027-21.145-103.86-58.641-141.36s-88.332-58.586-141.36-58.641zm100 800c-0.03125 26.512-10.574 51.93-29.324 70.676-18.746 18.75-44.164 29.293-70.676 29.324h-600c-26.512-0.027344-51.934-10.57-70.68-29.32-18.75-18.746-29.293-44.168-29.32-70.68v-600c0.027344-26.512 10.57-51.934 29.32-70.68 18.746-18.75 44.168-29.293 70.68-29.32h600c26.512 0.03125 51.93 10.574 70.676 29.324 18.75 18.746 29.293 44.164 29.324 70.676z"/>
  <path d="m600 376.93c-59.16 0.007812-115.89 23.516-157.72 65.352-41.832 41.836-65.328 98.574-65.324 157.73 0.007813 59.16 23.512 115.9 65.348 157.73 41.832 41.832 98.57 65.328 157.73 65.328 59.16-0.003906 115.89-23.504 157.73-65.34 41.832-41.832 65.332-98.57 65.332-157.73-0.066406-59.145-23.594-115.85-65.418-157.67-41.824-41.82-98.531-65.34-157.68-65.402zm0 346.14c-32.641-0.007812-63.938-12.977-87.012-36.062-23.078-23.082-36.039-54.387-36.035-87.023 0.007813-32.641 12.977-63.941 36.059-87.016 23.078-23.078 54.383-36.039 87.023-36.039 32.637 0.003906 63.938 12.969 87.016 36.051 23.078 23.078 36.043 54.379 36.043 87.02-0.03125 32.633-13.016 63.922-36.094 86.996-23.078 23.07-54.367 36.047-87 36.074z"/>
 </g>
</svg>
