<svg xmlns="http://www.w3.org/2000/svg" width="290" height="54" viewBox="0 0 290 54" class="editor-view__logo-preview" data-v-8d8ae3dd="" data-v-b9d2a614=""><svg id="mark" viewBox="0 0 32 32" width="54" height="54" x="0" y="0" data-v-8d8ae3dd="" style="fill: rgb(175, 154, 80);"><rect x="0" y="0" width="100%" height="100%" fill="none" data-v-8d8ae3dd=""></rect><g data-v-8d8ae3dd=""><g xmlns="http://www.w3.org/2000/svg"><g><polygon points="9.382,8.675 23.325,8.675 23.325,22.618 32,31.293 32,0 0.707,0   "></polygon><polygon points="22.618,23.325 8.675,23.325 8.675,9.382 0,0.707 0,32 31.293,32   "></polygon></g></g></g></svg><svg id="name" viewBox="0 0 220.1171875 34.94921875" width="220" height="34.93061224489796" x="70" y="9.534693877551021" data-v-8d8ae3dd="" style="fill: rgb(175, 154, 80);"><rect x="0" y="0" width="100%" height="100%" fill="none" data-v-8d8ae3dd=""></rect><g data-v-8d8ae3dd=""><path xmlns="http://www.w3.org/2000/svg" d="M26.64 1.80L26.64 7.25L16.62 7.25L16.62 34.50L9.88 34.50L9.88 7.25L0 7.25L0 1.80L26.64 1.80ZM55.46 1.80L55.46 7.25L45.44 7.25L45.44 34.50L38.70 34.50L38.70 7.25L28.82 7.25L28.82 1.80L55.46 1.80ZM78.97 15.05L78.97 20.33L66.04 20.33L66.04 29.09L81.22 29.09L81.22 34.50L59.30 34.50L59.30 1.80L81.17 1.80L81.17 7.25L66.04 7.25L66.04 15.05L78.97 15.05ZM96.63 1.80L105.43 1.80L113.83 25.52L122.19 1.80L131.04 1.80L131.04 34.50L124.28 34.50L124.28 25.56L124.95 10.13L116.12 34.50L111.50 34.50L102.69 10.15L103.37 25.56L103.37 34.50L96.63 34.50L96.63 1.80ZM147.68 34.95L147.68 34.95Q142.33 34.95 138.98 31.67Q135.62 28.39 135.62 22.93L135.62 22.93L135.62 22.30Q135.62 18.64 137.03 15.76Q138.45 12.87 141.04 11.31Q143.64 9.75 146.96 9.75L146.96 9.75Q151.95 9.75 154.81 12.89Q157.68 16.04 157.68 21.81L157.68 21.81L157.68 24.46L142.20 24.46Q142.51 26.84 144.10 28.28Q145.68 29.72 148.11 29.72L148.11 29.72Q151.86 29.72 153.97 27.00L153.97 27.00L157.16 30.57Q155.70 32.64 153.21 33.79Q150.71 34.95 147.68 34.95ZM146.94 15.00L146.94 15.00Q145.01 15.00 143.81 16.31Q142.60 17.61 142.27 20.04L142.27 20.04L151.30 20.04L151.30 19.52Q151.25 17.36 150.13 16.18Q149.01 15.00 146.94 15.00ZM160.35 22.17L160.35 22.17Q160.35 16.49 162.90 13.12Q165.45 9.75 169.87 9.75L169.87 9.75Q173.42 9.75 175.73 12.40L175.73 12.40L175.73 0L182.25 0L182.25 34.50L176.39 34.50L176.07 31.92Q173.65 34.95 169.83 34.95L169.83 34.95Q165.54 34.95 162.94 31.57Q160.35 28.19 160.35 22.17ZM166.84 22.64L166.84 22.64Q166.84 26.05 168.03 27.87Q169.22 29.69 171.49 29.69L171.49 29.69Q174.50 29.69 175.73 27.16L175.73 27.16L175.73 17.56Q174.52 15.03 171.53 15.03L171.53 15.03Q166.84 15.03 166.84 22.64ZM194.13 10.20L194.13 34.50L187.62 34.50L187.62 10.20L194.13 10.20ZM187.23 3.91L187.23 3.91Q187.23 2.45 188.21 1.50Q189.19 0.56 190.87 0.56L190.87 0.56Q192.54 0.56 193.52 1.50Q194.51 2.45 194.51 3.91L194.51 3.91Q194.51 5.39 193.51 6.33Q192.51 7.28 190.87 7.28Q189.23 7.28 188.23 6.33Q187.23 5.39 187.23 3.91ZM220.12 34.50L213.56 34.50Q213.11 33.62 212.91 32.32L212.91 32.32Q210.55 34.95 206.78 34.95L206.78 34.95Q203.20 34.95 200.86 32.88Q198.51 30.82 198.51 27.67L198.51 27.67Q198.51 23.81 201.37 21.74Q204.24 19.68 209.65 19.65L209.65 19.65L212.64 19.65L212.64 18.26Q212.64 16.58 211.77 15.57Q210.91 14.55 209.04 14.55L209.04 14.55Q207.40 14.55 206.47 15.34Q205.54 16.13 205.54 17.50L205.54 17.50L199.05 17.50Q199.05 15.39 200.35 13.59Q201.65 11.79 204.04 10.77Q206.42 9.75 209.38 9.75L209.38 9.75Q213.87 9.75 216.51 12.01Q219.15 14.26 219.15 18.35L219.15 18.35L219.15 28.88Q219.17 32.34 220.12 34.12L220.12 34.12L220.12 34.50ZM208.19 29.99L208.19 29.99Q209.63 29.99 210.84 29.35Q212.05 28.71 212.64 27.63L212.64 27.63L212.64 23.45L210.21 23.45Q205.34 23.45 205.02 26.82L205.02 26.82L205.00 27.20Q205.00 28.41 205.85 29.20Q206.71 29.99 208.19 29.99Z"></path></g></svg><!----></svg>